<?xml version="1.0" encoding="utf-8"?>
<!-- Generator: Adobe Illustrator 27.9.3, SVG Export Plug-In . SVG Version: 9.03 Build 53313)  -->
<svg version="1.1" id="Layer_1" xmlns="http://www.w3.org/2000/svg" xmlns:xlink="http://www.w3.org/1999/xlink" x="0px" y="0px"
	 viewBox="0 0 1417.32 1417.32" style="enable-background:new 0 0 1417.32 1417.32;" xml:space="preserve">
<style type="text/css">
	.st0{fill:#252F9C;stroke:#252F9C;stroke-width:5;stroke-miterlimit:10;}
	.st1{fill:#252F9C;}
	.st2{fill:#FFFFFF;stroke:#FFFFFF;stroke-width:5;stroke-miterlimit:10;}
	.st3{fill:#FFFFFF;}
</style>
<g>
	<path class="st2" d="M325.25,850.55h-73.58c-4.47,0-8.1-3.63-8.1-8.1V620.2c0-4.47,3.63-8.1,8.1-8.1h73.58c4.47,0,8.1,3.63,8.1,8.1
		v222.25C333.35,846.93,329.72,850.55,325.25,850.55z"/>
	<g>
		<path class="st2" d="M216.51,653.48c0,0-31.65-7.36-31.28,46.73l0,45.26h31.28V653.48z"/>
		<path class="st2" d="M216.51,800.51c0,0-31.65,7.36-31.28-46.73l0-45.26h31.28L216.51,800.51z"/>
	</g>
	<path class="st2" d="M272.45,583.48h31.46c0,0-13.8-100.46,48.02-184.91c0,0-19.32-7.73-23.74-21.53
		C328.2,377.04,263.62,460.39,272.45,583.48z"/>
	<path class="st2" d="M273.55,874.37h30.36c0,0-2.06,75.02,0,99.91c1.25,15.12,5.52,31.46,52.44,33.12l121.44-0.28v31.74
		c0,0-106.51,2.87-141.86,0c-21.69-1.76-60.72-9.94-62.37-60.72C271.9,927.36,273.55,874.37,273.55,874.37z"/>
	<polygon class="st2" points="506.67,992.39 506.67,1051.45 660.4,1051.45 658.74,992.39 	"/>
	<circle class="st2" cx="658.19" cy="1021.92" r="29.53"/>
	<path class="st2" d="M404.83,347.4c0,16.31-13.22,29.53-29.53,29.53s-29.53-13.22-29.53-29.53c0-4.84,1.16-9.4,3.23-13.43
		c2.27-4.43,5.63-8.22,9.72-11c4.73-3.22,10.44-5.1,16.59-5.1C391.61,317.87,404.83,331.09,404.83,347.4z"/>
	<path class="st2" d="M392.54,371.35c84.05-83.28,202.26-77.76,202.26-77.76V233.7c0,0-137.04-7.82-240.64,93.1"/>
</g>
<g>
	<path class="st3" d="M428.67,789.28h-38.12c-8.34,0-15.01-6.67-15.01-15.25c0-8.34,6.67-15.01,15.01-15.01h110.31
		c8.58,0,15.25,6.67,15.25,15.01c0,8.58-6.67,15.25-15.25,15.25h-38.12v121.51c0,9.77-7.39,17.15-16.92,17.15
		c-9.77,0-17.15-7.39-17.15-17.15V789.28z"/>
	<path class="st3" d="M554.22,853.37l20.01-1.91c7.62-0.48,11.44-3.34,11.44-9.77c0-9.05-8.58-14.77-20.01-14.77
		s-19.06,4.76-27.4,14.77c-3.1,3.1-6.91,5.24-11.67,5.24c-8.34,0-15.01-6.43-15.01-15.01c0-18.11,29.07-31.45,53.84-31.45
		c29.78,0,52.42,15.25,52.42,47.65v63.61c0,9.29-6.91,16.2-16.2,16.2c-9.05,0-15.96-6.91-15.96-16.2v-15.25
		c-7.15,20.97-20.97,31.69-42.41,31.69c-19.3,0-36.45-13.58-36.45-35.26C506.81,864.8,531.35,855.51,554.22,853.37z M554.7,902.68
		c16.92,0,30.97-13.58,30.97-28.35v-2.62c-2.14,1.67-5.72,2.38-10.96,3.1l-20.73,2.38c-9.29,1.19-15.01,5.96-15.01,13.1
		C538.98,897.68,544.93,902.68,554.7,902.68z"/>
	<path class="st3" d="M639.51,898.87c0-8.1,5.96-14.06,14.06-14.06c3.81,0,6.43,1.19,9.05,3.1c6.91,6.19,16.2,14.77,30.73,14.77
		c10.01,0,17.63-4.53,17.63-11.91c0-24.06-72.19-2.38-72.19-51.46c0-22.16,21.68-38.83,50.51-38.83c32.4,0,49.32,16.68,49.32,29.31
		c0,8.1-5.96,14.06-14.06,14.06c-3.81,0-6.67-1.19-9.29-3.1c-6.67-6.19-13.34-14.77-27.4-14.77c-9.53,0-16.68,4.29-16.68,11.91
		c0,23.35,72.19,1.67,72.19,51.46c0,22.16-24.06,38.83-54.08,38.83C656.43,928.18,639.51,911.5,639.51,898.87z"/>
	<path class="st3" d="M778.17,747.34c9.05,0,15.96,6.91,15.96,16.2v89.58l43.84-44.79c3.57-3.57,7.86-7.62,13.82-7.62
		c8.1,0,14.77,6.43,14.77,14.53c0,3.34-0.71,6.67-4.53,10.48l-29.78,29.78l35.98,46.22c2.62,3.1,3.57,6.67,3.57,10.01
		c0,9.29-7.15,16.2-16.2,16.2c-5,0-9.29-2.14-12.63-6.43l-33.59-42.89l-15.25,15.25v17.87c0,9.29-6.91,16.2-15.96,16.2
		s-16.2-6.91-16.2-16.2V763.54C761.97,754.25,769.12,747.34,778.17,747.34z"/>
	<path class="st3" d="M746.71,1097.67c-0.24-10.01,7.39-16.44,16.92-16.44c6.67,0,10.48,3.1,14.29,7.39
		c5.72,9.53,15.96,18.35,33.36,18.35c16.68,0,25.73-8.58,25.73-19.3c0-32.16-88.39-11.67-88.39-73.38
		c0-28.11,26.68-49.32,61.23-49.32c32.64,0,57.89,18.82,59.09,38.83c0.24,10.01-7.39,16.44-17.15,16.44
		c-6.67,0-10.48-3.34-14.06-7.39c-5.96-9.29-15.96-18.58-30.02-18.58c-14.77,0-23.83,7.62-23.83,18.11
		c0,30.73,88.39,10.25,88.39,74.33c0,28.59-28.11,49.79-63.85,49.79C773.16,1136.51,747.91,1117.92,746.71,1097.67z"/>
	<path class="st3" d="M899.2,1009.04c6.43,0,12.39,3.57,14.77,10.72l30.02,81.72l29.31-81.48c2.14-6.43,7.62-10.96,15.01-10.96
		c10.48,0,18.11,10.96,14.06,21.44l-57.18,142.95c-2.62,6.91-8.34,10.48-14.77,10.48c-9.77,0-20.25-10.01-14.77-22.4l10.72-24.06
		l-41.93-105.78C879.66,1019.05,889.43,1009.04,899.2,1009.04z"/>
	<path class="st3" d="M1036.9,1009.04c9.05,0,15.96,7.15,15.96,16.2v15.96c6.91-19.77,22.16-32.4,42.17-32.4
		c27.64,0,45.74,21.44,45.74,50.75v60.52c0,9.29-6.91,16.2-15.96,16.2c-9.05,0-16.2-6.91-16.2-16.2v-54.8
		c0-15.96-11.44-27.16-26.92-27.16c-16.92,0-28.83,11.2-28.83,27.16v54.8c0,9.29-6.91,16.2-15.96,16.2s-16.2-6.91-16.2-16.2v-94.82
		C1020.7,1016.19,1027.85,1009.04,1036.9,1009.04z"/>
	<path class="st3" d="M1226.55,1008.8c19.78,0,38.12,8.58,49.08,22.87c3.33,4.05,5,7.86,5,11.67c0,8.34-6.67,15.01-15.25,15.01
		c-5.72,0-9.29-2.86-11.91-5.96c-7.15-9.05-16.2-14.06-26.92-14.06c-18.34,0-32.4,14.77-32.4,34.31c0,19.77,14.06,34.31,32.4,34.31
		c10.72,0,19.78-5,26.92-14.06c2.62-3.1,6.19-5.96,11.91-5.96c8.58,0,15.25,6.67,15.25,15.25c0,3.57-1.67,7.62-5,11.44
		c-10.96,14.29-29.3,22.87-49.08,22.87c-37.41,0-65.76-27.64-65.76-63.85S1189.14,1008.8,1226.55,1008.8z"/>
</g>
</svg>
